<svg width="81" height="80" fill="none" xmlns="http://www.w3.org/2000/svg"><rect x=".833" width="80" height="80" rx="40" fill="#f3741180"/><path d="M61.68 22.718a1.57 1.57 0 00-1.134-1.295l-19.292-5.365a1.569 1.569 0 00-.84 0L21.12 21.422a1.569 1.569 0 00-1.133 1.295c-.112.805-2.665 19.815 3.883 29.273 6.54 9.446 16.187 11.867 16.594 11.965a1.564 1.564 0 00.737 0c.407-.098 10.055-2.52 16.594-11.965 6.548-9.457 3.995-28.468 3.883-29.273zm-8.406 11.099L40.115 46.976a1.565 1.565 0 01-2.218 0l-8.136-8.136a1.568 1.568 0 010-2.219l1.615-1.615a1.569 1.569 0 012.219 0l5.411 5.411 10.435-10.434a1.569 1.569 0 012.218 0l1.615 1.615a1.569 1.569 0 010 2.219z" fill="#fff"/></svg>