<svg width="81" height="80" fill="none" xmlns="http://www.w3.org/2000/svg"><rect x=".833" width="80.001" height="80" rx="40" fill="#f3741180"/><g clip-path="url(#clip0)"><path d="M64.559 33.526a1.235 1.235 0 00-.953-.453h-4.672c-1.152-3.04-2.654-6.02-4.361-7.145-5.906-3.885-21.57-3.885-27.476 0-1.709 1.126-3.205 4.11-4.364 7.145h-4.671c-.371 0-.72.167-.953.453a1.222 1.222 0 00-.25 1.025l.691 3.353c.119.572.622.98 1.204.98h1.384c-1.336 1.541-1.984 3.482-1.993 5.424-.008 2.399.902 4.567 2.568 6.1.018.017.037.028.054.044v4.691c0 1.017.826 1.844 1.844 1.844h4.309a1.845 1.845 0 001.843-1.844v-1.885h24.14v1.885c0 1.017.826 1.844 1.844 1.844h4.31a1.847 1.847 0 001.843-1.844v-4.599c1.767-1.618 2.611-3.846 2.623-6.069.007-2.008-.67-4.02-2.085-5.593h1.476c.584 0 1.088-.408 1.203-.981l.694-3.352a1.239 1.239 0 00-.252-1.023zM29.12 29.008c4.707-3.098 18.717-3.098 23.422 0 .915.6 2.09 3.025 3.169 5.994H25.955c1.075-2.968 2.252-5.392 3.166-5.994zM23.607 44.77a3.626 3.626 0 117.253.001 3.626 3.626 0 01-7.253-.001zm30.873 3.627a3.627 3.627 0 11.001-7.255 3.627 3.627 0 010 7.255z" fill="#fff"/></g><defs><clipPath id="clip0"><path fill="#fff" transform="translate(16.833 16)" d="M0 0h48.001v48H0z"/></clipPath></defs></svg>