<svg width="81" height="80" fill="none" xmlns="http://www.w3.org/2000/svg"><rect x=".167" width="80" height="80" rx="40" fill="#f3741180"/><g clip-path="url(#clip0)" fill="#fff"><path d="M43.023 40.794h1.218v-1.589l-1.218 1.59z"/><path d="M57.137 23.03A23.844 23.844 0 0040.167 16a23.844 23.844 0 00-16.971 7.03A23.844 23.844 0 0016.166 40c0 6.41 2.497 12.438 7.03 16.97A23.844 23.844 0 0040.166 64a23.84 23.84 0 0016.971-7.03A23.844 23.844 0 0064.167 40c0-6.41-2.497-12.438-7.03-16.97zM47.63 40.793v2.252h-1.165v1.642H43.95v-1.642h-3.403v-2.252l4.198-5.349h1.721v5.35h1.165zm-7.464 15.612c-9.046 0-16.406-7.36-16.406-16.406s7.36-16.406 16.406-16.406v-2.571L45.176 25l-5.01 3.977v-2.57c-7.495 0-13.593 6.097-13.593 13.593 0 7.496 6.098 13.594 13.593 13.594 7.496 0 13.594-6.098 13.594-13.594h2.813c0 9.046-7.36 16.406-16.407 16.406zM36.64 37.643c-.141-.106-.336-.159-.583-.159-.29 0-.567.075-.827.225-.26.15-.532.393-.815.729l-1.589-1.868c.168-.185.384-.355.65-.51.264-.154.557-.286.88-.397a6.593 6.593 0 012.138-.35c1.015 0 1.786.21 2.31.628.526.42.789 1.005.789 1.755 0 .274-.036.516-.106.728a2.269 2.269 0 01-.715 1.046 5.89 5.89 0 01-.53.398c-.22.15-.452.293-.695.43a8.6 8.6 0 00-.722.457h2.913v2.25H32.76c0-.44.035-.829.106-1.164a2.805 2.805 0 01.96-1.629c.252-.212.563-.42.934-.622.477-.257.854-.462 1.132-.616.278-.155.488-.28.629-.378.14-.097.232-.178.271-.245a.416.416 0 00.06-.218c0-.22-.07-.384-.212-.49z"/></g><defs><clipPath id="clip0"><path fill="#fff" transform="translate(16.166 16)" d="M0 0h48v48H0z"/></clipPath></defs></svg>