<svg height="512" width="512" xmlns="http://www.w3.org/2000/svg"><path d="M424.908 70.792c-11.407-10.509-57.582-44.018-160.53-44.466 0 0-121.363-7.276-180.473 46.983-32.879 32.877-44.467 81.118-45.725 140.856-1.258 59.74-2.785 171.669 105.104 202.034h.089l-.089 46.353s-.718 18.775 11.678 22.548c14.913 4.672 23.716-9.611 37.999-24.973 7.816-8.444 18.595-20.841 26.77-30.275 73.842 6.2 130.528-7.994 136.995-10.059 14.913-4.851 99.265-15.632 112.919-127.563 14.193-115.525-6.827-188.469-44.737-221.438z" fill="#fff"/><path d="M160.549 496c-2.815 0-5.701-.457-8.577-1.357-15.426-4.694-19.009-22.399-18.688-32.274l.075-38.735C24.523 388.035 26.984 270.881 28.183 213.955c1.454-69.042 16.913-115.981 48.651-147.717.101-.101.204-.199.309-.295C126.247 20.867 214.267 16 249.831 16c8.225 0 13.559.257 14.849.327 45.163.22 84.802 6.647 117.82 19.103 28.511 10.755 43.75 23.025 49.075 27.908 44.423 38.738 61.468 120.45 47.995 230.111-5.628 46.131-23.462 81.632-53.006 105.508-23.991 19.389-49.515 25.887-61.78 29.009-2.113.538-3.938 1.002-4.966 1.337-8.051 2.57-48.908 12.104-102.668 12.104h-.009c-11.087 0-22.218-.401-33.161-1.193-8.531 9.825-17.061 19.554-23.681 26.706-2.291 2.464-4.45 4.915-6.538 7.284C183.888 485.413 174.562 496 160.549 496zm-14.772-89.488a10.047 10.047 0 014.629 2.623c1.876 1.88 2.972 4.429 2.967 7.084l-.089 46.353c0 .121-.002.242-.007.362-.101 3.718 1.178 11.559 4.597 12.6 1.03.322 1.879.467 2.676.467 4.978 0 11.107-6.959 18.206-15.016 2.175-2.47 4.424-5.022 6.883-7.667 7.266-7.85 17.048-19.065 26.536-30.015a9.995 9.995 0 018.394-3.416 438.953 438.953 0 0036.574 1.521c58.02.001 96.193-11.029 96.543-11.141 1.597-.52 3.612-1.032 6.165-1.683 24.142-6.146 88.269-22.471 99.868-117.565 6.646-54.099 5.751-100.623-2.662-138.286-7.387-33.07-20.772-58.795-38.71-74.395-.071-.063-.143-.126-.213-.191-7.494-6.904-50.131-41.369-153.799-41.821a10.249 10.249 0 01-.554-.018c-.049-.003-5.302-.308-13.95-.308-33.184 0-115.042 4.34-159.006 44.532-27.757 27.861-41.311 70.401-42.646 133.844-1.205 57.167-3.438 163.543 97.598 192.136z" fill="#834995"/><path d="M312.528 211.201c.359 7.725-11.229 8.265-11.588.538-.989-19.763-10.242-29.374-29.286-30.452-7.726-.45-7.007-12.038.628-11.588 25.065 1.347 38.989 15.72 40.246 41.502z" fill="#834995"/><path d="M330.765 221.351c.897-38.089-22.907-67.913-68.094-71.236-7.636-.539-6.827-12.128.81-11.589 52.103 3.774 79.86 39.617 78.872 83.095-.09 7.725-11.769 7.367-11.588-.27z" fill="#834995"/><path d="M372.986 233.389c.089 7.726-11.589 7.815-11.589.09-.539-73.213-49.317-113.099-108.518-113.548-7.636-.09-7.636-11.588 0-11.588 66.207.449 119.478 46.173 120.107 125.046z" fill="#834995"/><path d="M362.834 321.514v.181c-9.702 17.068-27.848 35.934-46.533 29.915l-.18-.271c-18.955-5.299-63.6-28.296-91.808-50.755-14.553-11.499-27.849-25.063-38.09-38.089-9.252-11.589-18.594-25.334-27.667-41.862-19.134-34.586-23.356-50.037-23.356-50.037-6.019-18.685 12.756-36.832 29.913-46.533h.181c8.264-4.313 16.169-2.875 21.469 3.502 0 0 11.14 13.294 15.9 19.854 4.492 6.108 10.511 15.899 13.655 21.379 5.48 9.791 2.065 19.763-3.324 23.894l-10.78 8.625c-5.479 4.401-4.761 12.576-4.761 12.576s15.99 60.458 75.729 75.73c0 0 8.176.719 12.576-4.761l8.625-10.78c4.131-5.39 14.104-8.803 23.895-3.323 13.206 7.455 30.004 19.044 41.144 29.555 6.287 5.12 7.724 12.937 3.412 21.2z" fill="#fff"/><path d="M323.543 362.754c-3.49 0-6.959-.547-10.308-1.626a10.069 10.069 0 01-1.653-.702c-21.672-6.679-66.06-30.173-93.498-52.019-14.433-11.404-28.55-25.522-39.722-39.731-10.266-12.858-19.894-27.422-28.573-43.23-18.375-33.216-23.487-49.633-24.161-51.949-7.652-24.158 13.814-46.407 34.563-58.138a10.093 10.093 0 011.636-.74c4.211-2.009 8.489-3.026 12.734-3.026 7.693 0 14.757 3.403 19.892 9.582.438.523 11.394 13.608 16.303 20.372 4.843 6.586 11.172 16.938 14.235 22.276l.053.093c8.148 14.558 3.065 29.713-5.873 36.642l-10.71 8.569c-.543.437-.946 1.957-1.028 3.259 1.107 3.543 5.256 15.573 14.151 28.614 13.537 19.845 31.351 32.842 52.966 38.646 1.508-.071 2.983-.512 3.41-1.044l8.559-10.698c4.751-6.126 12.957-9.927 21.451-9.927 5.195 0 10.448 1.403 15.19 4.057 11.725 6.619 29.915 18.611 42.877 30.777 9.6 8.025 11.941 20.225 6.24 32.169a9.846 9.846 0 01-.751 1.655c-4.814 8.473-22.508 36.119-47.983 36.119zm-2.837-20.302c.935.202 1.872.302 2.837.302 10.654 0 22.629-12.418 30.039-25.035.116-.282.245-.561.387-.832 2.973-5.695.286-7.882-.86-8.815a10.083 10.083 0 01-.55-.482c-10.922-10.305-27.557-21.549-39.197-28.12-1.758-.983-3.582-1.491-5.391-1.491-2.915 0-4.977 1.31-5.651 2.189-.042.056-.085.11-.128.164l-8.625 10.78c-6.194 7.714-15.653 8.545-19.433 8.545-.937 0-1.59-.049-1.827-.069a10.12 10.12 0 01-1.602-.273c-64.685-16.537-82.206-80.161-82.92-82.862a9.987 9.987 0 01-.294-1.682c-.122-1.381-.916-13.717 8.461-21.248l10.794-8.636.164-.128c1.282-.983 3.822-5.418.705-11.032-3.425-5.963-9.135-15.113-13.008-20.38-4.541-6.256-15.4-19.226-15.509-19.356-1.787-2.15-3.443-2.396-4.536-2.396-1.362 0-2.966.462-4.641 1.336a9.956 9.956 0 01-.852.395c-14.52 8.482-28.096 22.58-24.351 34.207.046.142.088.286.128.43.03.106 4.388 15.165 22.459 47.832 8.145 14.835 17.134 28.44 26.732 40.464 10.274 13.066 23.211 26.001 36.475 36.481 28.271 22.51 71.861 44.375 88.301 48.971.66.182 1.293.432 1.893.741z" fill="#834995"/></svg>