<svg width="81" height="80" viewBox="0 0 81 80" fill="none" xmlns="http://www.w3.org/2000/svg">
<rect x="0.166504" width="80" height="80" rx="40" fill="#f3741180"/>
<g clip-path="url(#clip0)">
<path d="M43.0225 40.7945H44.2406V39.2054L43.0225 40.7945Z" fill="white"/>
<path d="M57.1371 23.0294C52.604 18.4965 46.5771 16 40.1665 16C33.7559 16 27.729 18.4965 23.1959 23.0294C18.663 27.5625 16.1665 33.5894 16.1665 40C16.1665 46.4106 18.663 52.4375 23.1959 56.9706C27.729 61.5035 33.7559 64 40.1665 64C46.5771 64 52.604 61.5035 57.1371 56.9706C61.67 52.4375 64.1665 46.4106 64.1665 40C64.1665 33.5894 61.67 27.5625 57.1371 23.0294ZM47.6304 40.7945V43.0456H46.4651V44.6875H43.9493V43.0456H40.5462V40.7945L44.7438 35.445H46.4652V40.7945H47.6304ZM40.1665 56.4062C31.1201 56.4062 23.7603 49.0464 23.7603 40C23.7603 30.9536 31.1201 23.5938 40.1665 23.5938V21.0226L45.1752 25L40.1665 28.9774V26.4062C32.6709 26.4062 26.5728 32.5044 26.5728 40C26.5728 47.4956 32.6709 53.5938 40.1665 53.5938C47.6621 53.5938 53.7603 47.4956 53.7603 40H56.5728C56.5728 49.0464 49.2129 56.4062 40.1665 56.4062ZM36.64 37.643C36.4987 37.5371 36.3045 37.4841 36.0573 37.4841C35.7661 37.4841 35.4901 37.5592 35.2297 37.7092C34.9693 37.8594 34.6978 38.1021 34.4154 38.4376L32.8263 36.5704C32.994 36.3851 33.2104 36.2152 33.4752 36.0606C33.74 35.9063 34.0334 35.7738 34.3557 35.6634C34.6778 35.5532 35.0199 35.467 35.382 35.4052C35.7438 35.3435 36.1146 35.3125 36.4942 35.3125C37.5093 35.3125 38.2796 35.5222 38.8049 35.9415C39.33 36.3608 39.5928 36.9457 39.5928 37.696C39.5928 37.9697 39.5574 38.2124 39.4868 38.4243C39.416 38.6362 39.3213 38.8282 39.2022 39.0003C39.083 39.1725 38.9394 39.3293 38.7719 39.4704C38.6041 39.6117 38.4276 39.7442 38.2423 39.8676C38.0214 40.0178 37.7898 40.1612 37.547 40.298C37.3041 40.435 37.0638 40.5872 36.8253 40.7549H39.7384V43.0059H32.7603C32.7603 42.5646 32.7953 42.1762 32.8661 41.8407C32.9367 41.5053 33.0514 41.203 33.2104 40.9336C33.3693 40.6644 33.5746 40.4238 33.8262 40.2119C34.0778 40 34.389 39.7927 34.7598 39.5895C35.2365 39.3335 35.6138 39.1283 35.8919 38.9737C36.17 38.8194 36.3796 38.6936 36.5208 38.5963C36.6619 38.4992 36.7526 38.4176 36.7923 38.3513C36.8321 38.2851 36.8519 38.2123 36.8519 38.1328C36.8519 37.9124 36.7811 37.749 36.64 37.643Z" fill="white"/>
</g>
<defs>
<clipPath id="clip0">
<rect width="48" height="48" fill="white" transform="translate(16.1665 16)"/>
</clipPath>
</defs>
</svg>
