<svg width="81" height="80" viewBox="0 0 81 80" fill="none" xmlns="http://www.w3.org/2000/svg">
<rect x="0.832764" width="80.0012" height="80" rx="40" fill="#f3741180"/>
<g clip-path="url(#clip0)">
<path d="M64.5587 33.5265C64.3239 33.2401 63.9736 33.0729 63.6061 33.0729H58.9344C57.7816 30.0322 56.2796 27.053 54.5725 25.9284C48.6668 22.0433 33.0023 22.0433 27.0967 25.9284C25.3883 27.0542 23.8925 30.0371 22.7335 33.0729H18.0618C17.6906 33.0729 17.3416 33.2401 17.1093 33.5265C16.8757 33.8116 16.7823 34.1889 16.8585 34.5515L17.5505 37.9044C17.6685 38.4759 18.1724 38.884 18.7538 38.884H20.1377C18.8017 40.4252 18.154 42.3659 18.1454 44.3078C18.1368 46.707 19.0475 48.8751 20.7129 50.4089C20.7313 50.4249 20.7498 50.436 20.767 50.452V55.1433C20.767 56.1597 21.5929 56.9869 22.6106 56.9869H26.9197C27.9374 56.9869 28.7633 56.1597 28.7633 55.1433V53.2579H52.9034V55.1433C52.9034 56.1597 53.7293 56.9869 54.747 56.9869H59.0561C60.0713 56.9869 60.8997 56.1597 60.8997 55.1433V50.5441C62.6671 48.9255 63.5115 46.6984 63.5225 44.475C63.5299 42.4667 62.8527 40.4547 61.438 38.8815H62.9142C63.498 38.8815 64.0019 38.4735 64.1174 37.9007L64.8106 34.5491C64.8819 34.1889 64.7922 33.8141 64.5587 33.5265ZM29.1209 29.0072C33.8283 25.9087 47.8384 25.9087 52.5433 29.0072C53.4577 29.607 54.6339 32.0319 55.7118 35.0013H25.9549C27.0303 32.0331 28.2065 29.6094 29.1209 29.0072ZM23.6074 44.77C23.6074 42.7666 25.2322 41.1442 27.2343 41.1442C29.2389 41.1442 30.8613 42.7666 30.8613 44.77C30.8613 46.7734 29.2389 48.397 27.2343 48.397C25.2322 48.397 23.6074 46.7734 23.6074 44.77ZM54.4803 48.397C52.4781 48.397 50.8533 46.7734 50.8533 44.77C50.8533 42.7666 52.4781 41.1442 54.4803 41.1442C56.4849 41.1442 58.1073 42.7666 58.1073 44.77C58.1073 46.7734 56.4824 48.397 54.4803 48.397Z" fill="white"/>
</g>
<defs>
<clipPath id="clip0">
<rect width="48.0012" height="48" fill="white" transform="translate(16.8328 16)"/>
</clipPath>
</defs>
</svg>
