<svg width="81" height="80" viewBox="0 0 81 80" fill="none" xmlns="http://www.w3.org/2000/svg">
<rect x="0.833496" width="80" height="80" rx="40" fill="#f3741180"/>
<path d="M61.6793 22.7179C61.5931 22.099 61.1478 21.59 60.5459 21.4226L41.2539 16.0575C40.9788 15.981 40.6883 15.981 40.4131 16.0575L21.1211 21.4226C20.5191 21.59 20.0738 22.0988 19.9877 22.7179C19.8758 23.5225 17.3231 42.5334 23.8705 51.9908C30.4103 61.4369 40.0577 63.8576 40.4652 63.9561C40.5863 63.9854 40.7097 63.9998 40.8335 63.9998C40.9573 63.9998 41.0807 63.9851 41.2018 63.9561C41.6094 63.8576 51.2569 61.4369 57.7964 51.9908C64.3438 42.5336 61.7912 23.5227 61.6793 22.7179ZM53.2744 33.8167L40.1152 46.9758C39.809 47.282 39.4075 47.4353 39.0061 47.4353C38.6048 47.4353 38.2032 47.2822 37.897 46.9758L29.7608 38.8396C29.4666 38.5456 29.3013 38.1465 29.3013 37.7305C29.3013 37.3145 29.4668 36.9155 29.7608 36.6214L31.3763 35.0059C31.9889 34.3935 32.9822 34.3933 33.5946 35.0059L39.0061 40.4175L49.4406 29.9827C49.7347 29.6885 50.1338 29.5232 50.5498 29.5232C50.9658 29.5232 51.3648 29.6885 51.6589 29.9827L53.2744 31.5982C53.887 32.2108 53.887 33.2041 53.2744 33.8167Z" fill="white"/>
</svg>
